<svg width="17" height="15" viewBox="0 0 17 15" fill="none" xmlns="http://www.w3.org/2000/svg">
<path d="M16.9833 4.55367C16.5019 9.17722 11.4027 14.9986 7.79116 14.9986C4.1796 14.9986 1.40255 11.5156 1.29231 7.92909C1.11787 2.27683 4.428 2.19297 7.98792 1.58917C11.3315 1.02171 17.3573 0.957413 16.9833 4.55367Z" fill="#EFF8FE"/>
<path d="M6.85528 14.1097C2.89485 14.1097 0.117801 10.2786 0.0075561 6.70052C-0.0636145 4.38595 0.416438 2.72829 1.47423 1.6353C2.86973 0.194279 5.07741 0 7.05205 0C11.339 0 14.151 0.708628 15.4083 2.10632C15.9972 2.76044 16.247 3.55991 16.1507 4.48379C15.6735 9.071 10.8073 14.1097 6.85528 14.1097ZM7.05205 0.698845C5.22394 0.698845 3.1893 0.867965 1.97521 2.12169C1.05558 3.07212 0.639718 4.56206 0.703911 6.67816C0.828111 10.7049 3.98334 13.4108 6.85389 13.4108C8.495 13.4108 10.5129 12.357 12.2531 10.5917C14.0714 8.74814 15.2381 6.49506 15.4544 4.41111C15.5297 3.68291 15.3441 3.0833 14.8878 2.57454C13.7853 1.34737 11.0753 0.698845 7.05205 0.698845Z" fill="#1A9DD9"/>
<path d="M14.0388 5.78364C13.9746 5.78364 13.909 5.76547 13.8504 5.72773C13.6885 5.6229 13.6411 5.40626 13.7458 5.24413C14.0891 4.71161 14.1156 4.13856 13.8239 3.54174C13.5978 3.07911 13.2601 2.77022 13.2559 2.76742C13.1122 2.63884 13.0996 2.418 13.2266 2.27404C13.355 2.13008 13.5755 2.1175 13.7192 2.24469C14.3319 2.78979 15.2487 4.19866 14.3305 5.6229C14.2663 5.72633 14.1546 5.78364 14.0388 5.78364Z" fill="#1A9DD9"/>
</svg>
