<svg width="10" height="8" viewBox="0 0 10 8" fill="none" xmlns="http://www.w3.org/2000/svg">
<path d="M0.135697 4.81104L0 4.59515L2.02929 3.16416L3.63915 2.14027L6.11255 0.715445L6.24824 0.931327L3.90438 2.54736L2.28835 3.57742L0.135697 4.81104Z" fill="#4689A6"/>
<path d="M1.65309 6.32226L1.5174 6.10638L3.54052 4.68155L5.15655 3.65149L7.62994 2.23283L7.75947 2.44255L5.42178 4.05858L3.80574 5.08865L1.65309 6.32226Z" fill="#4689A6"/>
<path d="M2.899 7.57439L2.76331 7.35851L4.7926 5.93369L6.40863 4.90362L8.87585 3.4788L9.01155 3.69468L6.67385 5.31071L5.05165 6.34078L2.899 7.57439Z" fill="#4689A6"/>
<path d="M8.10481 6.24824L6.48261 3.90438L5.45871 2.28835L4.2251 0.135695L4.44098 -1.43051e-06L5.8658 2.02312L6.89587 3.63915L8.31452 6.11254L8.10481 6.24824Z" fill="#4689A6"/>
<path d="M6.56281 6.70467L4.94678 4.36698L3.91672 2.74478L2.68311 0.598296L2.89899 0.462599L4.32381 2.48572L5.35387 4.10175L6.77253 6.57515L6.56281 6.70467Z" fill="#4689A6"/>
<path d="M5.10102 7.99993L3.48499 5.65607L2.45493 4.04003L1.22131 1.88738L1.4372 1.75168L2.86819 3.77481L3.89208 5.39084L5.3169 7.86423L5.10102 7.99993Z" fill="#4689A6"/>
</svg>
