<svg
    xmlns="http://www.w3.org/2000/svg"
    viewBox="0 0 562 942"
    id="vector">
    <path
        id="path"
        d="M 195.25 476.83 L 238.5 465.43 L 337.41 461.74 L 373.62 475.15 L 365.57 501.97 L 202.85 505.55 Z"
        fill="#a2d0ea"/>
    <path
        id="path_1"
        d="M 212.27 534.33 C 217.23 552.38 222.33 570.14 229.46 587.48 C 244.53 624.12 259.16 661.3 279.83 695.25 C 290.33 682.45 298.37 667.88 305.26 652.88 C 312.79 636.52 319.16 619.67 326.44 603.2 C 329.86 595.45 333.45 587.75 337.53 580.31 C 342.04 572.08 347.56 564.49 353.24 557.04 C 358.86 549.65 364.66 542.35 369.57 534.46 C 375.1 525.57 379.4 515.89 383.88 506.44 C 386.83 500.22 389.71 493.97 392.61 487.72 C 359.18 474.1 318.64 465.93 278.78 468.21 C 251.75 469.76 223.32 477.53 196.8 488.83 C 203.62 503.33 208.02 518.91 212.27 534.33 Z"
        fill="#d5e1ff"/>
    <path
        id="path_2"
        d="M 215.95 536.17 C 220.92 554.23 226.01 571.98 233.14 589.32 C 248.21 625.96 262.84 663.15 283.5 697.09 C 294 684.29 302.04 669.72 308.94 654.73 C 316.47 638.37 322.84 621.52 330.11 605.04 C 333.53 597.29 337.12 589.59 341.2 582.15 C 345.71 573.91 351.22 566.33 356.9 558.88 C 362.52 551.49 368.31 544.19 373.23 536.3 C 378.76 527.41 383.06 517.73 387.54 508.28 C 390.49 502.06 393.37 495.81 396.27 489.56 C 362.84 475.94 322.3 467.77 282.44 470.05 C 255.41 471.6 226.98 479.37 200.46 490.67 C 207.3 505.18 211.7 520.75 215.95 536.17 Z"
        fill="#d5e1ff"/>
    <path
        id="path_3"
        d="M 342.38 512.19 C 343.53 508.74 335.85 430.8 335.85 430.8 L 281.76 435.2 L 234.82 423.65 L 232.52 513.49 L 250.24 525.35 L 277.5 544.89 L 342.38 512.19 Z"
        fill="#d38035"/>
    <path
        id="path_4"
        d="M 183.72 271.56 C 183.72 271.56 170.87 245.62 162.94 245.65 C 158.38 245.67 145.06 253.81 141.19 263.03 C 136.22 274.89 160.53 305.25 162.13 317.34 C 163.73 329.43 174.5 333.28 176.9 335.01 C 179.3 336.73 186.11 330.3 186.11 330.3 L 183.72 271.56 Z"
        fill="#d38035"/>
    <path
        id="path_5"
        d="M 394.68 263.78 C 394.68 263.78 407.11 237.85 414.78 237.86 C 419.19 237.88 425.79 252.84 425.79 260.9 C 425.79 271.28 412.41 297.56 410.87 309.66 C 409.33 321.75 404.13 328.66 401.81 330.39 C 399.49 332.12 392.36 322.51 392.36 322.51 L 394.68 263.78 Z"
        fill="#d38035"/>
    <path
        id="path_6"
        d="M 238.15 385.53 C 245.55 386.7 252.97 387.95 260.4 388.85 C 268.87 389.88 277.39 390.26 285.9 390.05 C 303 389.63 319.96 387.07 336.82 384.12 C 353.65 381.17 370.55 379.01 386.95 373.75 C 390.57 372.58 394.12 371.31 397.59 369.71 C 403.68 299.25 393.16 129.04 393.16 129.04 L 343.6 114.35 L 230.09 116.94 L 169.98 161.09 C 169.98 161.09 171.59 305.55 181.81 368.29 C 198.94 378.48 218.99 382.51 238.15 385.53 Z"
        fill="#ffae54"/>
    <path
        id="path_7"
        d="M 399.14 263.31 L 413.14 183.45 C 413.14 183.45 423.57 134.19 418.74 127.31 C 401.15 102.26 373.97 132.49 373.97 132.49 C 373.97 132.49 391.54 161.42 393.28 172.32 C 396.94 195.33 399.14 263.31 399.14 263.31 Z"
        fill="#1e0e00"/>
    <path
        id="path_8"
        d="M 173.17 275.11 C 173.17 275.11 164.11 233.15 160.92 218.68 C 156.73 199.69 139.71 173.66 150.08 146.5 C 161.01 117.89 193.03 145.83 193.03 145.83 C 193.03 145.83 178.65 175.24 176.98 186.14 C 173.47 209.15 173.17 275.11 173.17 275.11 Z"
        fill="#1e0e00"/>
    <path
        id="path_9"
        d="M 294.43 439.81 C 330.11 439.81 377.87 426.56 393.01 394.32 C 397.06 385.7 400.82 346.72 401.45 317.54 L 369.02 353.24 C 369.02 353.24 368.18 327.05 358.75 321.57 C 347.31 314.92 301.62 312.81 289.55 312.94 C 277.31 313.07 226.49 314.96 212.24 324.45 C 204.45 329.64 201.43 354.97 201.43 354.97 L 177.11 331.94 L 176.15 333.41 C 178.55 359.12 181.69 380.44 185.77 390.67 C 200.88 428.68 258.75 439.81 294.43 439.81 Z"
        fill="#ffae54"/>
    <path
        id="path_10"
        d="M 232.33 344.79 L 347.44 341.91 C 347.44 341.91 330.39 375.31 290.95 376.46 C 251.52 377.62 232.33 344.79 232.33 344.79 Z"
        fill="#551600"/>
    <path
        id="path_11"
        d="M 294.04 59.07 C 283.97 69.94 279.13 86.81 264.46 85.85 C 208.88 82.2 180.37 98.75 176.2 112.33 C 170.51 129.71 185.74 136.35 192.46 145.57 C 194.24 148.01 220.37 133.62 229.28 132.49 C 242.87 130.76 292.12 149.45 315.99 151.87 C 350.1 155.33 380.03 141.47 385.15 135.94 C 416.22 102.39 414.76 -71.37 294.04 59.07 Z"
        fill="#2a1c00"/>
    <path
        id="path_12"
        d="M 386.28 99.91 C 380.59 98.16 375.02 95.75 370.34 91.76 C 365.33 87.47 361.57 81.96 358.2 76.14 C 354.63 69.96 351.29 63.48 346.63 58.15 C 342.37 53.28 337.22 49.47 331.37 47.23 C 324.26 44.51 316.74 43.8 309.19 43.66 C 304.41 48.19 299.43 53.25 294.21 58.88 C 284.14 69.75 279.3 86.62 264.63 85.66 C 246.79 84.49 231.74 85.4 219.39 87.63 C 219.43 87.65 219.47 87.67 219.52 87.69 C 224.43 90.33 228.85 94.04 232.11 98.84 C 235.87 104.37 237.61 110.9 240.3 117.02 C 243.4 124.07 247.61 130.52 252.7 136.03 C 273.08 141.24 300.27 150.08 316.18 151.69 C 350.29 155.14 380.22 141.29 385.34 135.76 C 391.49 129.11 396.37 116.96 399.29 102.77 C 394.84 102.17 390.46 101.2 386.28 99.91 Z"
        fill="#302615"/>
    <path
        id="path_13"
        d="M 173 277.04 C 173 277.04 167.49 264.75 162.16 264.37 C 156.83 263.98 151.5 265.14 150.79 268.21 C 150.08 271.28 150.08 278.58 156.12 276.66 C 162.16 274.74 164.64 271.67 167.13 273.2 C 169.62 274.73 173 277.04 173 277.04 Z"
        fill="#a8642c"/>
    <path
        id="path_14"
        d="M 400.08 276.94 C 400.08 276.94 401.78 263.32 406.88 261.02 C 411.99 258.72 417.55 257.87 419.17 260.52 C 420.79 263.17 422.98 270.06 416.49 270.44 C 410 270.82 406.64 268.82 404.67 271.17 C 402.7 273.53 400.08 276.94 400.08 276.94 Z"
        fill="#a8642c"/>
    <path
        id="path_15"
        d="M 203.26 247.47 L 213.21 257.45 L 269.04 248.58 L 270.64 220.36 L 227.07 216.76 L 211.08 227.13 Z"
        fill="#ce864a"/>
    <path
        id="path_16"
        d="M 205.44 221.42 C 216.66 204.89 268.86 205.58 268.86 205.58 L 270.99 220.55 C 270.99 220.55 226.66 219.27 215.03 230.05 C 208.49 236.11 204.11 251.08 204.11 251.08 C 204.11 251.08 199.03 230.85 205.44 221.42 Z"
        fill="#2a1c00"/>
    <path
        id="path_17"
        d="M 214.74 263.12 C 210.27 258.35 216.5 243.93 223.22 241.3 C 229.94 238.66 243.6 235.17 253.56 236.19 C 259.98 236.85 275.33 254.71 272.27 256.69 C 269.22 258.67 265.09 263.28 247.99 264.6 C 230.89 265.92 220.95 269.75 214.74 263.12 Z"
        fill="#d38035"/>
    <path
        id="path_18"
        d="M 217.1 260.86 C 213.68 256.33 216.93 247.06 222.7 243.09 C 227.88 239.53 243.09 236.79 251.64 237.61 C 259.51 238.36 271.41 255.19 268.78 256.88 C 266.16 258.58 259.6 261.13 244.91 262.27 C 230.22 263.4 221.85 267.13 217.1 260.86 Z"
        fill="#ffffff"/>
    <path
        id="path_19"
        d="M 241.94 240.25 C 233.68 240.25 226.98 246.77 226.98 254.8 C 226.98 258.1 228.59 261.67 230.48 264.11 C 235.25 263.75 240.26 262.78 245.69 262.36 C 249.16 262.09 252.46 261.57 255.5 260.9 C 256.38 259.04 256.88 256.98 256.88 254.79 C 256.89 246.77 250.2 240.25 241.94 240.25 Z"
        fill="#502c00"/>
    <path
        id="path_20"
        d="M 250.07 254.28 C 250.07 258.75 246.35 262.37 241.76 262.37 C 237.17 262.37 233.45 258.75 233.45 254.28 C 233.45 249.82 237.17 246.2 241.76 246.2 C 246.35 246.2 250.07 249.82 250.07 254.28 Z"
        fill="#2a1900"/>
    <path
        id="path_21"
        d="M 240.88 254.63 C 247.5 254.63 252.87 248.38 252.87 240.66 C 252.87 239.74 252.79 238.85 252.65 237.97 C 252.49 237.95 252.33 237.92 252.18 237.9 C 245.81 237.28 235.76 238.65 228.9 240.86 C 228.98 248.47 234.32 254.63 240.88 254.63 Z"
        fill="#ffffff"
        fill-opacity="0.3"
        stroke-opacity="0.3"
        stroke-width="1"/>
    <path
        id="path_22"
        d="M 239.64 246.99 C 239.64 248.55 238.31 249.82 236.67 249.82 C 235.02 249.82 233.7 248.55 233.7 246.99 C 233.7 245.43 235.03 244.16 236.67 244.16 C 238.31 244.17 239.64 245.43 239.64 246.99 Z"
        fill="#ffffff"
        fill-opacity="0.6"
        stroke-opacity="0.6"
        stroke-width="1"/>
    <path
        id="path_23"
        d="M 388.13 249.82 L 378.18 259.81 L 322.35 250.93 L 320.76 222.71 L 364.32 219.11 L 380.31 229.48 Z"
        fill="#ce864a"/>
    <path
        id="path_24"
        d="M 385.95 223.76 C 374.73 207.22 322.53 207.92 322.53 207.92 L 320.4 222.89 C 320.4 222.89 364.74 221.61 376.36 232.39 C 382.89 238.45 387.28 253.41 387.28 253.41 C 387.28 253.41 392.36 233.2 385.95 223.76 Z"
        fill="#2a1c00"/>
    <path
        id="path_25"
        d="M 376.65 265.47 C 381.11 260.7 374.89 246.29 368.17 243.64 C 361.45 241 347.79 237.51 337.83 238.54 C 331.41 239.2 316.06 257.06 319.12 259.04 C 322.18 261.02 326.3 265.63 343.41 266.95 C 360.51 268.27 370.44 272.1 376.65 265.47 Z"
        fill="#d38035"/>
    <path
        id="path_26"
        d="M 374.29 263.2 C 377.71 258.67 374.46 249.4 368.69 245.43 C 363.51 241.87 348.31 239.13 339.75 239.95 C 331.88 240.71 319.99 257.52 322.61 259.22 C 325.23 260.92 331.79 263.47 346.48 264.61 C 361.17 265.75 369.55 269.48 374.29 263.2 Z"
        fill="#ffffff"/>
    <path
        id="path_27"
        d="M 349.46 242.61 C 357.72 242.61 364.41 249.12 364.41 257.16 C 364.41 260.45 362.8 264.03 360.91 266.47 C 356.14 266.11 351.13 265.14 345.7 264.72 C 342.22 264.46 338.93 263.93 335.88 263.27 C 335 261.41 334.5 259.34 334.5 257.17 C 334.51 249.12 341.2 242.61 349.46 242.61 Z"
        fill="#502c00"/>
    <path
        id="path_28"
        d="M 341.33 256.63 C 341.33 261.09 345.05 264.71 349.63 264.71 C 354.22 264.71 357.94 261.09 357.94 256.63 C 357.94 252.16 354.23 248.54 349.63 248.54 C 345.05 248.55 341.33 252.17 341.33 256.63 Z"
        fill="#2a1900"/>
    <path
        id="path_29"
        d="M 350.51 256.97 C 343.89 256.97 338.52 250.72 338.52 243 C 338.52 242.08 338.6 241.19 338.74 240.32 C 338.9 240.29 339.06 240.26 339.22 240.25 C 345.59 239.64 355.64 241 362.5 243.21 C 362.41 250.83 357.07 256.97 350.51 256.97 Z"
        fill="#ffffff"
        fill-opacity="0.3"
        stroke-opacity="0.3"
        stroke-width="1"/>
    <path
        id="path_30"
        d="M 351.76 249.34 C 351.76 250.91 353.09 252.17 354.73 252.17 C 356.38 252.17 357.71 250.9 357.71 249.34 C 357.71 247.78 356.38 246.51 354.73 246.51 C 353.09 246.51 351.76 247.78 351.76 249.34 Z"
        fill="#ffffff"
        fill-opacity="0.6"
        stroke-opacity="0.6"
        stroke-width="1"/>
    <path
        id="path_31"
        d="M 328.33 115.54 C 318.83 109.21 308.82 103.23 300.91 94.58 C 296.54 89.8 292.52 84.5 289.4 78.67 C 288.07 76.18 286.83 73.53 285.94 70.75 C 280.41 78.95 274.99 86.3 265.16 85.66 C 261.86 85.45 258.65 85.3 255.54 85.22 C 261.2 96.29 264.77 108.73 272.96 118.1 C 284.18 130.94 301.06 138.31 312.27 151.11 C 313.82 151.36 315.32 151.56 316.7 151.7 C 332.67 153.31 347.72 151.14 359.73 147.8 C 353.55 133.28 340.74 123.8 328.33 115.54 Z"
        fill="#2a1c00"/>
    <path
        id="path_32"
        d="M 326.7 299.3 C 326.7 304.07 323.11 306.79 321.52 306.79 C 319.93 306.79 321.9 303.88 321.9 299.11 C 321.9 294.34 319.93 289.51 321.52 289.51 C 323.11 289.51 326.7 294.52 326.7 299.3 Z"
        fill="#ffffff"
        fill-opacity="0.3"
        stroke-opacity="0.3"
        stroke-width="1"/>
    <path
        id="path_33"
        d="M 295.24 351.54 C 278.95 351.21 265.26 358.61 262.3 368.66 C 269.97 372.18 279.14 374.57 289.85 374.47 C 304.31 374.34 315.84 369.82 324.66 364.15 C 319.39 356.93 308.24 351.81 295.24 351.54 Z"
        fill="#8b2400"/>
    <path
        id="path_34"
        d="M 291.7 360.06 C 313.84 359.59 328.92 351.72 337.9 344.9 L 244.13 346.6 C 253.68 353.15 269.47 360.54 291.7 360.06 Z"
        fill="#ffffff"/>
    <path
        id="path_35"
        d="M 318.41 317.64 C 306.48 317.64 288.9 305.97 288.9 305.97 C 289.14 306.01 312.5 309.9 322.53 308.82 C 327.76 308.26 330.42 305.64 330.35 303.84 C 329.93 292.6 296.75 244 295.55 234.62 C 293.8 220.98 314.28 197.11 314.28 197.11 C 314.24 197.18 299.84 219.45 300.55 232.12 C 305.17 242.1 336.45 298.91 336.76 299.52 C 336.76 299.52 338.46 302.72 338.62 303.9 C 339.2 308.05 334.25 316.24 323.33 317.41 C 321.88 317.57 320.21 317.64 318.41 317.64 Z"
        fill="#d38035"/>
    <path
        id="path_36"
        d="M 318.27 272.1 C 307.95 257.46 311.33 235.74 313.2 230.9 C 314.77 226.83 327.98 223.02 333.58 221.58 C 340.79 219.72 354.47 216.86 365.17 218.64 C 375.01 220.27 389.09 224.75 398.68 228.45 C 400.76 229.26 402.58 230.01 404.09 230.68 C 407.71 232.29 410.52 233.99 410.6 235.58 C 410.7 237.73 411.95 241.37 409.1 243.56 C 408.22 244.23 405.18 245.94 404.56 247.08 C 401.18 253.35 395.62 273.52 388.71 282.3 C 382.14 290.65 373.6 294.07 360.61 294.64 C 355.43 294.86 349.52 293.76 343.52 291.44 C 333.23 287.46 324.26 280.59 318.27 272.1 Z M 397.77 242.54 C 398.21 239.25 397.36 236.02 395.43 235.19 C 384.3 230.39 377.01 226.17 364.16 224.74 C 348.48 223 322.44 230.79 318.84 233.54 C 317.74 237.21 314.41 255.86 323.34 268.53 C 328.55 275.93 336.72 282.18 345.78 285.68 C 350.91 287.67 356.09 288.66 360.37 288.47 C 372.19 287.96 381.14 280.84 382.74 277.99 C 388.47 267.75 397.74 242.74 397.77 242.54 Z"
        fill="#120a00"/>
    <path
        id="path_37"
        d="M 312.01 238.63 C 311.98 238.61 307.08 235.15 300.29 234.99 C 292.48 234.81 283.55 236.44 283.45 236.46 L 281.98 228.53 C 282.38 228.45 291.83 226.73 300.47 226.93 C 309.88 227.15 316.49 231.92 316.78 232.13 L 312.01 238.63 Z"
        fill="#120a00"/>
    <path
        id="path_38"
        d="M 407.06 238.55 C 407.06 240.01 405.88 241.19 404.42 241.19 C 402.96 241.19 401.78 240.01 401.78 238.55 C 401.78 237.09 402.96 235.91 404.42 235.91 C 405.88 235.91 407.06 237.09 407.06 238.55 Z"
        fill="#dcfaff"/>
    <path
        id="path_39"
        d="M 168.51 250.54 L 186.54 233.67 L 192.58 245.17 L 170.43 256.3 Z"
        fill="#23211e"/>
    <path
        id="path_40"
        d="M 253.61 289.53 C 247.61 291.85 241.7 292.96 236.52 292.74 C 223.53 292.18 215.72 287.22 208.42 280.4 C 200.25 272.78 195.94 251.44 192.57 245.18 C 191.95 244.03 188.91 242.34 188.03 241.65 C 185.19 239.46 186.44 235.81 186.54 233.67 C 186.61 232.08 189.42 230.37 193.05 228.76 C 194.56 228.09 196.38 227.34 198.47 226.53 C 208.06 222.82 222.14 218.35 231.98 216.72 C 242.68 214.94 256.36 217.8 263.57 219.66 C 269.17 221.11 282.38 224.92 283.95 228.98 C 285.82 233.82 289.19 255.54 278.87 270.18 C 272.89 278.67 263.92 285.54 253.61 289.53 Z M 214.39 276.27 C 217.08 279.34 224.98 286.04 236.8 286.55 C 241.07 286.73 246.25 285.74 251.39 283.75 C 260.44 280.25 268.62 274 273.83 266.61 C 282.76 253.93 279.43 235.28 278.33 231.61 C 274.72 228.86 248.69 221.07 233 222.81 C 220.16 224.24 212.86 228.46 201.73 233.26 C 199.8 234.09 198.95 237.33 199.4 240.61 C 199.41 240.82 206.65 267.43 214.39 276.27 Z"
        fill="#120a00"/>
    <path
        id="path_41"
        d="M 194.71 236.58 C 194.71 238.04 193.52 239.22 192.07 239.22 C 190.61 239.22 189.43 238.04 189.43 236.58 C 189.43 235.12 190.61 233.94 192.07 233.94 C 193.53 233.94 194.71 235.12 194.71 236.58 Z"
        fill="#dcfaff"/>
    <path
        id="path_42"
        d="M 92.95 563.24 C 92.95 563.24 18.52 751.21 17.63 772.67 C 16.73 794.13 3.32 840.62 35.51 842.4 C 67.69 844.19 132.07 839.72 132.07 839.72 L 92.95 563.24 Z"
        fill="#c9e0f2"/>
    <path
        id="path_43"
        d="M 463.74 540.22 C 463.74 540.22 514.85 704.6 523.64 732.44 C 534.37 766.42 547.21 787.39 541.3 797.03 C 507.33 852.46 418.15 845.98 418.15 845.98 L 463.74 540.22 Z"
        fill="#c9e0f2"/>
    <path
        id="path_44"
        d="M 292.59 439.95 C 276.15 439.95 235.06 430.52 234.26 430.34 L 233.75 453.52 C 249.25 458.44 264.83 460.95 277.5 460.95 C 296.28 460.95 318.55 455.46 337.65 445.57 C 337.26 441.4 336.82 437.18 336.51 434.03 C 322.32 438.38 305.75 439.95 292.59 439.95 Z"
        fill="#b76325"/>
    <path
        id="path_45"
        d="M 248.67 547.57 C 248.67 547.57 271.36 559.53 272.02 559.53 C 272.69 559.53 291.91 558.97 291.91 558.97 C 291.91 558.97 319.74 548.24 320.63 547.57 C 321.52 546.9 309.01 527.13 309.01 527.13 C 309.01 527.13 301.41 536.42 292.69 541.54 C 287.66 544.49 279.53 544.61 279.28 544.44 C 278.99 544.25 273.47 544.28 268.32 541.09 C 261.25 536.71 254.02 528.8 254.02 528.8 L 248.67 547.57 Z"
        fill="#5a738e"/>
    <path
        id="path_46"
        d="M 263.65 659.21 C 263.65 658.2 274.05 570.37 274.05 570.37 L 290.48 571.93 L 306.57 646.14 L 279.83 695.26 L 263.65 659.21 Z"
        fill="#3a72af"/>
    <path
        id="path_47"
        d="M 268.34 541.2 C 269.68 541.2 292.82 541.2 292.82 541.2 L 290.47 571.93 C 290.47 571.93 274.04 571.03 274.04 570.37 C 274.04 569.69 268.34 541.2 268.34 541.2 Z"
        fill="#1c63a3"/>
    <path
        id="path_48"
        d="M 311.14 527.89 L 344.4 586.58 L 311.38 557.52 L 277.39 545.56 Z"
        fill="#4d6689"
        fill-opacity="0.3"
        stroke-opacity="0.3"
        stroke-width="1"/>
    <path
        id="path_49"
        d="M 418.82 980.28 C 418.82 980.28 465.56 684.95 466.99 552.76 C 467.27 527.32 436.12 499.57 392.17 481.39 C 389.51 487.13 386.86 492.87 384.15 498.58 C 379.99 507.36 376.09 516.44 371.11 524.78 C 366.4 532.65 360.87 539.94 355.31 547.21 C 349.69 554.57 343.88 561.98 339.33 570.08 C 334.98 577.84 331.11 585.86 327.51 594.01 C 313.56 625.59 302.86 659.75 280.43 686.68 C 280.11 687.07 279.57 687.07 279.29 686.62 C 258.47 652.63 243.88 615.32 228.75 578.58 C 221.98 562.14 217.17 545.23 212.46 528.11 C 208.21 512.65 203.86 497.02 196.99 482.48 C 132.98 510.1 80.7 558.47 88.82 588.39 C 122.43 712.19 131.21 870.5 137.2 957.92"
        fill="#d9e9f9"/>
    <path
        id="path_50"
        d="M 238.63 496.06 C 234.16 486.77 233.65 454.36 233.65 454.36 L 212.19 481.18 C 212.19 481.18 201.46 512.46 206.45 525.11 C 228.79 581.76 231.03 585.02 231.03 585.02 L 258.06 531.03 C 258.06 531.03 249.46 518.56 238.63 496.06 Z"
        fill="#93b3d8"/>
    <path
        id="path_51"
        d="M 331.48 500.86 C 336.17 491.57 338.69 455.93 338.69 455.93 L 359.27 481.31 C 359.27 481.31 362.6 516.19 360.46 528.75 C 349.92 590.44 341.94 588.6 341.94 588.6 L 308.47 527.36 C 308.47 527.35 320.13 523.35 331.48 500.86 Z"
        fill="#93b3d8"/>
    <path
        id="path_52"
        d="M 195.25 476.83 L 281.08 692.4 L 287.79 772.86 L 171.79 563.66 L 189.89 564.33 L 155.02 502.64 Z"
        fill="#aedaff"/>
    <path
        id="path_53"
        d="M 374.28 471.8 L 421.89 493.92 L 379.65 545.56 L 394.4 557.63 L 283.09 706.48 L 278.78 686.62 Z"
        fill="#aedaff"/>
    <path
        id="path_54"
        d="M 283.26 764.31 L 287.12 768.84"
        fill="#aedaff"/>
    <path
        id="path_55"
        d="M 284.44 985.25"
        fill="#aedaff"/>
    <path
        id="path_56"
        d="M 281.75 946.36 C 274.85 946.36 269.23 940.44 269.23 933.17 C 269.23 925.9 274.84 919.98 281.75 919.98 C 288.65 919.98 294.27 925.9 294.27 933.17 C 294.27 940.44 288.66 946.36 281.75 946.36 Z M 281.75 924.01 C 277.07 924.01 273.26 928.12 273.26 933.17 C 273.26 938.22 277.07 942.33 281.75 942.33 C 286.43 942.33 290.24 938.22 290.24 933.17 C 290.25 928.12 286.44 924.01 281.75 924.01 Z"
        fill="#aedaff"/>
    <path
        id="path_57"
        d="M 191.29 611.94 C 190.76 608.84 178.51 535.68 185.96 501.13 C 191.2 476.82 232.5 451.16 234.15 450.12 L 234.04 455.49 C 233.67 455.72 198.37 481.8 193.83 502.82 C 186.71 535.88 199.11 609.85 199.23 610.6 L 191.29 611.94 Z"
        fill="#282218"/>
    <path
        id="path_58"
        d="M 390.39 607.56 C 390.32 606.71 383.62 522.71 373.9 498.08 C 364.53 474.34 338.36 458.31 338.08 458.16 L 337.85 451.01 C 339.09 451.66 370.89 468.57 381.38 495.13 C 391.54 520.88 398.14 603.42 398.42 606.92 L 390.39 607.56 Z"
        fill="#282218"/>
    <path
        id="path_59"
        d="M 204.71 628.33 L 190.76 630.23 L 188.14 610.96 L 202.1 609.07 Z"
        fill="#353d44"/>
    <path
        id="path_60"
        d="M 177.32 596.18 L 188.3 610.91 L 190.72 630.2 L 183.35 648.19 Z"
        fill="#23201b"/>
    <path
        id="path_61"
        d="M 201.61 609.43 L 208.1 591.36 L 213.88 645.2 L 203.69 628.76 Z"
        fill="#23201b"/>
    <path
        id="path_62"
        d="M 383.25 720.79 C 381.82 717.7 348.53 644.88 367.96 615.08 C 373.54 606.53 382.8 602.31 395.45 602.54 C 396.15 602.56 396.89 602.54 397.68 602.54 C 403.55 602.5 412.43 602.41 419.19 610.42 C 431.27 624.74 431.99 660.34 421.4 719.23 L 416.12 718.28 C 426.27 661.85 425.93 626.72 415.09 613.87 C 409.95 607.78 403.18 607.84 397.73 607.89 C 396.9 607.9 396.1 607.9 395.35 607.89 C 384.5 607.68 377.02 610.99 372.46 617.99 C 354.62 645.33 387.78 717.78 388.12 718.52 L 383.25 720.79 Z"
        fill="#b1b2b1"/>
    <path
        id="path_63"
        d="M 395.74 721.12 C 395.74 724.51 392.99 727.27 389.59 727.27 L 387.8 727.27 C 384.41 727.27 381.65 724.52 381.65 721.12 L 381.65 721.12 C 381.65 717.73 384.4 714.98 387.8 714.98 L 389.59 714.98 C 392.99 714.97 395.74 717.73 395.74 721.12 L 395.74 721.12 Z"
        fill="#2d261c"/>
    <path
        id="path_64"
        d="M 422.56 720.01 C 422.56 723.4 419.81 726.15 416.41 726.15 L 414.62 726.15 C 411.23 726.15 408.48 723.4 408.48 720.01 L 408.48 720.01 C 408.48 716.61 411.23 713.86 414.62 713.86 L 416.41 713.86 C 419.81 713.85 422.56 716.61 422.56 720.01 L 422.56 720.01 Z"
        fill="#2d261c"/>
    <path
        id="path_65"
        d="M 402.54 606.16 C 402.54 608.52 400.62 610.43 398.26 610.43 L 390.63 610.43 C 388.27 610.43 386.35 608.52 386.35 606.16 L 386.35 606.16 C 386.35 603.79 388.27 601.88 390.63 601.88 L 398.26 601.88 C 400.63 601.88 402.54 603.79 402.54 606.16 L 402.54 606.16 Z"
        fill="#322900"/>
    <path
        id="path_66"
        d="M 177.84 739.59 C 177.84 739.59 111.69 716.35 101.85 716.35 C 92.01 716.35 57.15 744.07 57.15 744.07 L 71.45 756.58 L 163.53 750.33 L 177.84 739.59 Z"
        fill="#d38035"/>
    <path
        id="path_67"
        d="M 438.68 726.18 C 468.65 725.2 544.69 767.19 546.86 778.03 C 562.06 854.02 424.38 863.86 402.03 864.75 C 379.68 865.64 216.97 828.99 216.97 828.99 C 216.97 828.99 377.61 728.17 438.68 726.18 Z"
        fill="#c1d9ea"/>
    <path
        id="path_68"
        d="M 442.7 727.52 C 442.7 727.52 414.09 704.61 389.28 705.96 C 364.47 707.3 342.68 730.43 342.68 730.43 L 370.51 762.84 L 442.7 727.52 Z"
        fill="#d38035"/>
    <path
        id="path_69"
        d="M 115.26 743.16 C 115.26 743.16 20.49 737.8 16.92 768.2 C 13.35 798.59 12.76 834.1 22.59 838.57 C 32.43 843.04 63.4 871.01 170.68 853.13 C 211.71 846.29 372.73 761.94 372.73 761.94 L 346.12 728.61 L 115.26 743.16 Z"
        fill="#c9e0f2"/>
    <path
        id="path_70"
        d="M 548.45 789.91 C 524.32 835.65 426.38 842.55 407.84 843.29 C 404.93 843.4 399.47 843.14 392.2 842.6 L 256.1 819.3 C 256.1 819.3 178.49 836.23 143.62 838.58 C 35.1 845.88 40.36 831.2 32.22 819.94 C 27.55 813.48 15.88 795.91 14.32 772.64 C 11.23 801.67 10.86 833.98 20.24 838.24 C 28.72 842.1 53.72 864.06 129.43 858.47 L 134.01 926.19 C 134.01 926.19 183.65 903.87 248.69 904.54 C 313.73 905.21 427.25 918.15 427.25 918.15 L 436.47 861.55 C 480.72 855.26 548.77 838.44 548.45 789.91 Z"
        fill="#4f6e8e"
        fill-opacity="0.2"
        stroke-opacity="0.2"
        stroke-width="1"/>
</svg>
